# xmcd
#
# Track frame offsets: 
#        150
#        16534
#        31026
#        46285
#        62100
#        79042
#        96689
#        110212
#        124993
#        138186
#        154858
#        170819
#
# Disc length: 2484 seconds
#
# Revision: 1
# Processed by: cddbd v1.5.2PL0 Copyright (c) Steve Scherf et al.
# Submitted via: ExactAudioCopy v1.0b5
#
DISCID=9f09b20c
DTITLE=Django 3000 - Django 3000
DYEAR=2012
DGENRE=Folklore
TTITLE0=Zeit fia ois
TTITLE1=Tchavo
TTITLE2=Heidi
TTITLE3=Django Django
TTITLE4=Da Wuide und da Deife
TTITLE5=Wuide Rössa
TTITLE6=I wui hoam
TTITLE7=Südwind
TTITLE8=Rucki werch
TTITLE9=Secret Gipsy Agent
TTITLE10=Schwarze Augen
TTITLE11=Heidi (Wirtshaus Version)
EXTD=
EXTT0=
EXTT1=
EXTT2=
EXTT3=
EXTT4=
EXTT5=
EXTT6=
EXTT7=
EXTT8=
EXTT9=
EXTT10=
EXTT11=
PLAYORDER=
